inDegrees=no
num_controls=7
num_derivatives=13
num_iterations=279
num_multipliers=7
num_parameters=0
num_slacks=7
num_states=26
objective=0.509295
objective_accelerations=0.041106
objective_balance=0.003533
objective_effort=0.029443
objective_height=0.322669
objective_ligament=0.112544
solver_duration=3379.076863
status=Solve_Succeeded
success=true
DataType=double
version=3
OpenSimVersion=4.5
endheader
time	/jointset/ground_pelvis/pelvis_tilt/value	/jointset/ground_pelvis/pelvis_tx/value	/jointset/ground_pelvis/pelvis_ty/value	/jointset/hip_l/hip_flexion_l/value	/jointset/hip_l/hip_adduction_l/value	/jointset/hip_l/hip_rotation_l/value	/jointset/back/lumbar_extension/value	/jointset/patellofemoral_l/patellar_flexion_l/value	/jointset/knee_l/knee_flexion_l/value	/jointset/knee_l/knee_adduction_l/value	/jointset/knee_l/knee_rotation_l/value	/jointset/ankle_l/ankle_angle_l/value	/jointset/subtalar_l/subtalar_angle_l/value	/jointset/ground_pelvis/pelvis_tilt/speed	/jointset/ground_pelvis/pelvis_tx/speed	/jointset/ground_pelvis/pelvis_ty/speed	/jointset/hip_l/hip_flexion_l/speed	/jointset/hip_l/hip_adduction_l/speed	/jointset/hip_l/hip_rotation_l/speed	/jointset/back/lumbar_extension/speed	/jointset/patellofemoral_l/patellar_flexion_l/speed	/jointset/knee_l/knee_flexion_l/speed	/jointset/knee_l/knee_adduction_l/speed	/jointset/knee_l/knee_rotation_l/speed	/jointset/ankle_l/ankle_angle_l/speed	/jointset/subtalar_l/subtalar_angle_l/speed	/forceset/tau_hip_flexion_l	/forceset/tau_hip_adduction_l	/forceset/tau_hip_rotation_l	/forceset/tau_knee_flexion_l	/forceset/tau_ankle_angle_l	/forceset/tau_subtalar_angle_l	/forceset/tau_lumbar_extension	lambda_cid13_p0	lambda_cid13_p1	lambda_cid13_p2	lambda_cid13_p3	lambda_cid13_p4	lambda_cid13_p5	lambda_cid14_p0	/jointset/ground_pelvis/pelvis_tilt/accel	/jointset/ground_pelvis/pelvis_tx/accel	/jointset/ground_pelvis/pelvis_ty/accel	/jointset/hip_l/hip_flexion_l/accel	/jointset/hip_l/hip_adduction_l/accel	/jointset/hip_l/hip_rotation_l/accel	/jointset/back/lumbar_extension/accel	/jointset/patellofemoral_l/patellar_flexion_l/accel	/jointset/knee_l/knee_flexion_l/accel	/jointset/knee_l/knee_adduction_l/accel	/jointset/knee_l/knee_rotation_l/accel	/jointset/ankle_l/ankle_angle_l/accel	/jointset/subtalar_l/subtalar_angle_l/accel	gamma_cid13_p0	gamma_cid13_p1	gamma_cid13_p2	gamma_cid13_p3	gamma_cid13_p4	gamma_cid13_p5	gamma_cid14_p0
0	-0.0170355688907166	0.04726065673050588	0.9233311145624837	0.3085816938045678	-0.2606122331055944	-0.3178592184462255	-0.3879492264334186	0.2499269421184929	0.2499269421184919	-0.1009389931160188	-0.1745321238219931	-0.0008036623358878681	0.03708097351764732	0	0	0	0	0	0	0	0	0	0	0	0	0	0.1021909950987329	-0.04770024459114264	-0.01641260218766411	-0.2966279209036913	0.264479107027095	-0.03589608658626717	-0.01347584718185574	39.45694881803559	8.133333069034084	-1.125364910044604	2.28076275233924	-633.128138201131	-63.84966729141453	-22.93282707555833	-1.604388772046695	-1.928382390420662	-0.8343377306055336	8.418171016953382	-0.3915387235661991	2.092287672309447	-6.865554519617733	6.957423326983926	6.957423326983936	1.543722906468369	-0.03490182421669642	0.5779955190619646	-0.2209009131062679	1.965968294395107e-08	1.079547028193229e-07	-4.96130933862313e-08	-5.86033499371337e-09	8.619242521487394e-08	5.369358761805077e-08	1.734080611443264e-08
0.01	-0.01711201952826577	0.04716565167141222	0.9232902418541131	0.3089926141201251	-0.2606327539955266	-0.3177536768563125	-0.3882910171547814	0.2502687805163763	0.2502687805163753	-0.1008661197405533	-0.174531767572382	-0.0007756084340162032	0.03706861425933574	-0.01520230645166869	-0.01887520649334886	-0.008145387951208572	0.08174526034660635	-0.004166678476517833	0.02105155192511247	-0.06790487722001426	0.06810628383431246	0.06810628383431232	0.01434769750276936	6.666734746151334e-05	0.005638322822888807	-0.00252634507555994	0.09625990931666091	-0.05457260045935901	-0.01597068030790809	-0.2913178603314922	0.2563408572546396	-0.02589376034449921	-0.008032879444281516	37.23224095250233	4.180789952263257	-0.4974342796059261	2.046786872109973	-635.2528530234782	-71.56486174122702	-22.93726277798284	-1.464980195203471	-1.848220152092481	-0.800249030455894	7.98688289299288	-0.4386188326661386	2.103087667733175	-6.684964265281492	6.698018082160794	6.698018082160762	1.346260345586789	0.02675127146443317	0.5608860405166004	-0.2766867876391745	4.709409049387259e-09	9.196654762360923e-08	-6.307913081315508e-09	7.931273505896155e-09	1.696493074601402e-08	2.653818652314073e-08	1.191761336217081e-08
0.02	-0.01733785895302724	0.04688566847272492	0.9231687933256147	0.3102078229090436	-0.2606968189548183	-0.3174393200041243	-0.3892982586367623	0.2512838391867036	0.2512838391867038	-0.1006565759553792	-0.1745308845978581	-0.0006903442285928333	0.03702935445369689	-0.02987775744239664	-0.03699562791872891	-0.01611516402551219	0.1608576946723561	-0.008708813871899236	0.04176305245506556	-0.1330901521235549	0.1346440544888604	0.13464405448886	0.02733408194176126	0.0001053449843966849	0.0114420607103479	-0.005380109465452899	0.0903288235345885	-0.06144495632757351	-0.01552875842814823	-0.2860077997592929	0.2482026074821854	-0.01589143410272895	-0.002589911706708551	35.06564518951078	0.220266340824618	0.1292628019223083	1.767102371375291	-636.4849215580422	-79.19596348855282	-22.95040863295946	-1.499017679858531	-1.777425376826915	-0.799215355224543	7.891605812782061	-0.4666301073389177	2.024277393277544	-6.321634056322995	6.643720691031029	6.643720691031027	1.271460293712873	-0.04049976632199676	0.6110785319760055	-0.2863847759728825	-1.024086484517655e-08	7.597839242789554e-08	3.699726722360029e-08	2.172288200550568e-08	-5.226256372284591e-08	-6.17214571769322e-10	6.494420609908972e-09
0.03	-0.01770796695095416	0.04642819403375647	0.9229683743078941	0.3122012746229431	-0.2608079756457787	-0.3169202183620763	-0.3909435661917854	0.2529563423595921	0.2529563423595927	-0.1003236602390925	-0.1745302383628586	-0.0005463873644851077	0.0369600783231731	-0.0440511963771307	-0.05437947091696294	-0.02395153013299695	0.237399660309396	-0.01356871368964069	0.06200354070007865	-0.1955209136841722	0.1995847393421214	0.1995847393421218	0.03903697593019437	3.610543434287089e-05	0.01736268339825816	-0.008518155807798095	0.08330668898815069	-0.05574594558275221	-0.01511854234555977	-0.2795622670039262	0.242648938249705	-0.01714472836108151	0.003503347831458409	33.19754113995721	0.9700906293175127	0.1485853058292763	1.922837034224034	-637.7138849439939	-76.66334257711351	-22.97190309807857	-1.3626102797717	-1.700891017363139	-0.7732915628932248	7.470542291018366	-0.5026134287900357	2.015871861024154	-6.136230426370628	6.378464993502626	6.378464993502721	1.087906783159684	0.01169871808188069	0.5845616092829299	-0.3339866751343438	-2.203565900257996e-08	4.465805390204683e-08	6.824255918936909e-08	3.096864497997129e-08	-1.092917172074242e-07	-2.280003158381566e-08	1.888113690950603e-10
0.04	-0.01821702999412661	0.04580047571359732	0.9226901027642224	0.3149471560635833	-0.2609691200368761	-0.316200324373396	-0.3931996680065027	0.2552700969032193	0.2552700969032198	-0.09988007501657087	-0.1745299175698667	-0.0003428227790813675	0.03685812730687205	-0.05766876649149778	-0.07104440415686794	-0.03168566921579101	0.3113436400205711	-0.01870635389931352	0.08192152178153017	-0.2552490040623683	0.2628943286365421	0.262894328636543	0.04946798318867314	4.025658144688028e-05	0.02336360496954403	-0.01191508662090388	0.0762845544417102	-0.0500469348379313	-0.0147083262629731	-0.2731167342485604	0.2370952690172245	-0.01839802261943451	0.009596607369623608	31.38340268689569	1.712916941057548	0.1662247911916044	2.029095264788543	-638.1216902470376	-74.04971569155072	-23.00122922999932	-1.387843915785122	-1.633643425161119	-0.7787699502864017	7.372008627609075	-0.5221781857251965	1.959775960565206	-5.781099819838726	6.317501579262989	6.317501579262947	1.017082947721997	-0.0258216268904595	0.6271383086511111	-0.3381616701250107	-3.376539172210377e-08	1.302158788485511e-08	9.923919366360909e-08	4.01206791807226e-08	-1.660693585067596e-07	-4.488032108899884e-08	-6.134992026121989e-09
0.05	-0.01885974115299339	0.04500972881998819	0.9223348665190908	0.3184199153354397	-0.2611828635131197	-0.3152835174054519	-0.3960394062600601	0.2582089643206118	0.2582089643206124	-0.09933818623180438	-0.1745297684696605	-7.878475128061428e-05	0.03672111485086011	-0.07078227646454627	-0.08698188670710756	-0.03935403752900356	0.3827830849067391	-0.02407567356247496	0.1013751922093685	-0.3122605245012098	0.3246116273504666	0.3246116273504682	0.05871525997614459	-2.519164833109524e-06	0.02946191794816915	-0.01551549845892578	0.06899497474266626	-0.04839050582657684	-0.01423289581072893	-0.2670421523020139	0.2305632065393379	-0.01584652043849052	0.01584539620902745	29.42574438656096	0.8688958952335751	0.3906506000842121	2.048300081814934	-638.6527081868884	-74.7904116157078	-23.03774284888922	-1.259424382343501	-1.555329393228026	-0.7597726022953676	6.966141232884988	-0.5493194059569133	1.928444474957584	-5.595459833698269	6.058716171832268	6.058716171832381	0.849382603207273	0.007699735287365467	0.6038643127437803	-0.3752081972693549	-4.209274093080039e-08	-2.431063203274207e-08	1.182559665718547e-07	4.582021835925078e-08	-2.095751594332072e-07	-6.11756743211671e-08	-1.199075739737296e-08
0.06	-0.01963085138044643	0.04406330135622208	0.9219031661247359	0.3225943148189107	-0.2614513022958639	-0.3141741173550166	-0.3994361160535642	0.2617569791560191	0.2617569791560194	-0.09870965816737312	-0.1745298060701545	0.0002467737103615206	0.03654725282514223	-0.08334858020874539	-0.1021805181882641	-0.04697849906047903	0.4516716823434787	-0.02964541519944865	0.1204401382797847	-0.3666433120517052	0.3847238122393945	0.3847238122393969	0.0667958391215179	2.916440252247822e-06	0.03566769173781682	-0.01928500056209098	0.06170539504362291	-0.04673407681522231	-0.01375746535848806	-0.2609675703554662	0.224031144061452	-0.01329501825754617	0.02209418504843131	27.51688049410084	0.01817801719981128	0.6140356720988825	2.01641945066869	-638.4419957783232	-75.45597371455736	-23.08070078344323	-1.278402670015229	-1.485873211344513	-0.7699885939389858	6.861839137723406	-0.5622625804876499	1.882031089080788	-5.25535324216948	5.996478814263665	5.996478814263678	0.7837434193023667	-0.01617935661740033	0.6486304708556042	-0.3719797231536797	-5.027683188640953e-08	-6.188267316719839e-08	1.367683242562688e-07	5.137438932631694e-08	-2.525221460281647e-07	-7.722745128920839e-08	-1.782681590445694e-08
0.07000000000000001	-0.0205252215312159	0.0429685671185639	0.9213953183375879	0.3274454487539126	-0.2617762856196694	-0.312876436852584	-0.4033635263017641	0.2658983099225212	0.2658983099225211	-0.09800581100527456	-0.1745299560501249	0.0006349588937368851	0.03633502622618638	-0.09544202101465292	-0.1166435505676281	-0.05459144115892055	0.5181474252821204	-0.03537287378492127	0.1390263196996144	-0.4184290292075494	0.4432760628834991	0.4432760628835059	0.07379469073272461	-2.621646339252524e-05	0.04198515797284435	-0.02317725792270217	0.0545354145590663	-0.04450608296058672	-0.01331480203636671	-0.2557558791302857	0.2187738817972668	-0.01161769599452596	0.02821768986792623	25.96297758092636	-0.5065000168232686	0.7756915358980965	1.842164941710768	-638.4129060681429	-75.46739742563506	-23.12926184056773	-1.162296496581337	-1.40809109271193	-0.7570554612662225	6.479288646688979	-0.5812328027842094	1.836438653665176	-5.078724695158436	5.744660098965004	5.744660098965649	0.6311199105409938	0.004751235075918545	0.6256726796630545	-0.4003948950965421	-5.540030118347976e-08	-1.078057801515485e-07	1.475304624348261e-07	5.330569485726483e-08	-2.837865204232006e-07	-9.00955117634118e-08	-2.377293155274046e-08
0.08	-0.02153802243218504	0.04173288798881612	0.9208113194407616	0.3329491094732515	-0.2621591925903708	-0.3113949891389068	-0.4077965024700957	0.2706171755773604	0.2706171755773604	-0.09723734255136164	-0.1745301910606664	0.001086792335429886	0.03608336782310807	-0.1070347302486725	-0.1303694966061859	-0.06220872099613686	0.5821770392109383	-0.04123014457868003	0.1571935805286895	-0.4677564960780536	0.5002307899068495	0.5002307899068608	0.07972009748437794	-1.408967447973666e-05	0.04839734340134083	-0.02717136138658174	0.04736543407450869	-0.04227808910595092	-0.01287213871424502	-0.250544187905105	0.2135166195330821	-0.009940373731505371	0.03434119468742008	24.45294206434253	-1.037082189983533	0.93626018031908	1.615660685304561	-637.7210184550682	-75.40898751164491	-23.18249783520988	-1.178256355637624	-1.338455943183262	-0.7708561416939446	6.372613335758652	-0.5882250221448819	1.798246970929881	-4.7637031851015	5.676974090112834	5.676974090112876	0.569054447391692	-0.007927418105887379	0.6675743095493784	-0.3923489438073615	-6.032631101870874e-08	-1.542676655778272e-07	1.577925864517151e-07	5.50032671342696e-08	-3.142971779021125e-07	-1.027581711734966e-07	-2.972614766174653e-08
0.09	-0.0226644985566446	0.04036364810043461	0.9201510415337891	0.3390812979488556	-0.2626011752151715	-0.3097343310987736	-0.4127102332816491	0.2758978048006046	0.2758978048006048	-0.09641464143321242	-0.17453046959283	0.001603301629141468	0.03579144300396317	-0.1181772336243004	-0.1433532209775313	-0.06985149309911816	0.6438568788192445	-0.04717544316027276	0.1748654174253243	-0.5145832974469906	0.5556276242703181	0.555627624270331	0.0846599339899031	-3.477149887211312e-05	0.0549229220691967	-0.03121678835591164	0.03984043164548198	-0.04013185441987427	-0.01242966677818774	-0.2455440620495459	0.2083838403497894	-0.008111529409049658	0.04074379951717081	22.96545693738435	-1.633783209855949	1.103216330698082	1.379677738399129	-637.402588854141	-75.48167598360305	-23.23940765465289	-1.069751943302266	-1.259530642176731	-0.761746002255448	6.005102574263245	-0.599029835979375	1.740724847622096	-4.581213294919924	5.430929580151193	5.430929580151409	0.4324037002580164	0.001922451550370213	0.6478037821909826	-0.4111102984865794	-6.313951075213935e-08	-1.924751029411995e-07	1.619291543495777e-07	5.570475413587356e-08	-3.346900241076769e-07	-1.107306749475828e-07	-3.406274472836336e-08
